<?xml version="1.0" encoding="utf-8"?>
<svg version="1.1" id="Layer_1" xmlns="http://www.w3.org/2000/svg" xmlns:xlink="http://www.w3.org/1999/xlink" x="0px" y="0px"
	 viewBox="0 0 3516.225 5000" enable-background="new 0 0 3516.225 5000" xml:space="preserve">
<path d="M3344.689,1799.132c-52.142,17.014-110.302-0.18-85.201,14.735c34.568,20.523,172.051,22.262,231.98-123.758
	c58.855-143.426,12.958-315.074-139.696-375.139c-41.85-16.467-89.783-19.832-131.807-3.814
	c-41.065,15.652-73.768,48.479-97.196,85.66c-27.666,43.906-48.291,96.331-62.483,146.103c-0.67,2.348-1.669,4.597-2.518,6.895
	c1.167-3.157-11.17-24.398-12.597-29.815c-2.398-9.1-4.167-16.355-8.015-24.797c-11.539-25.315-24.882-49.826-41.11-72.529
	c-34.173-47.807-77.451-88.094-118.887-129.421c-35.504-35.41-70.172-72.542-96.283-115.612
	c-24.048-39.666-37.153-87.329-45.064-132.984c-16.58-95.681-1.241-196.912,43.969-282.944
	c12.411-23.618,29.351-47.473,48.444-66.323c79.968-78.95,176.57-142.184,293.974-111.551
	c67.767,17.682,136.487,69.583,163.21,135.999c29.36,72.97-20.76,155.32-72.484,204.324
	c-42.721,40.462-101.143,58.476-99.616,64.416c1.92,7.469,38.075-3.026,41.873-4.126c31.158-9.023,60.496-25.31,84.748-46.824
	c75.384-66.872,99.474-183.491,48.492-271.945c-17.249-29.927-42.303-55.19-71.717-73.233
	c-10.557-6.475-86.753-30.032-84.801-43.011c0.67-4.478,5.788-3.829,9.027-3.758c22.952,0.44,158.926-45.275,216.707-126.648
	c48.379-68.131,70.494-154.846,50.834-237.079c-22.23-92.98-100.979-192.721-207.411-171.281
	c-114.273,23.032-238.914,140.882-178.157,264.116c18.85,38.233,60.728,78.602,106.062,77.947c4.158-0.06,10.156,3.019,11.916-2.599
	c2.259-7.217-5.758-7.537-9.377-8.607c-76.994-22.752-130.555-136.384-62.579-211.768c198.992-220.675,350.36,20.343,307.485,174.2
	c-77.533,278.245-349.421,151.858-547.083,346.612c-58.424,57.563-114.337,132.295-127.565,215.427
	c-14.279,89.738-9.758,198.778,22.547,284.013c27.53,72.639,79.105,133.715,138.583,182.596
	c55.922,45.958,111.945,114.26,143.525,180.05c42.834,89.237,38.456,196.391,13.127,289.921
	c-23.676,87.428-66.873,169.375-143.032,221.858c-19.453,13.406-40.231,24.895-61.881,34.345
	c-98.1,42.818-216.09,54.493-322.126,47.159c-74.349-5.143-149.542-30.44-216.738-61.425
	c-16.184-7.457-73.335-31.129-157.016-105.104c-171.881-151.908-106.843-110.892-192.454-229.582
	c-74.125-102.765-158.806-104.694-158.886-111.702c-0.16-13.715,78.473,10.276,331.677-295.069
	c65.278-78.733,143.201-103.894,244.357-125.637c83.981-18.054,176.889,13.525,248.355,63.028
	c144.505,100.096,132.427,345.784,3.885,453.56c-16.19,13.574-34.062,25.151-53.182,34.158
	c-50.063,23.582-107.794,29.178-161.836,18.119c-51.509-10.54-110.255-39.266-147.395-76.593
	c-87.559-88.028-67.08-158.828-67.944-160.291c-6.575-11.136-17.883,29.956-18.386,33.37
	c-13.001,88.163,85.579,178.79,157.359,212.228c88.643,41.294,194.846,36.877,276.197-17.733
	c73.004-49.006,122.045-129.568,137.344-215.65c2.226-12.525,3.749-25.175,4.553-37.871
	c16.624-262.521-223.864-396.605-456.064-322.42c-205.65,65.698-89.829,104.384-40.726-164.564
	c24.502-134.224-6.208-234.46-7.567-314.313c-2.669-156.837,45.674-386.308,161.175-491.412
	c76.619-69.721,231.13-70.946,312.884-10.331c61.692,45.741,106.816,151.048,84.09,226.728
	c-47.573,158.426-225.513,224.703-304.366,204.85c-23.112-5.818-38.857-18.933-40.856-13.096
	c-4.908,14.335,156.596,115.201,328.618-93.518c45.921-55.717,62.412-129.763,45.102-199.785
	c-16.041-64.888-60.455-118.697-116.385-153.87c-27.902-17.547-58.798-30.399-91.056-37.269
	c-130.173-27.725-260.799,42.341-323.295,156.092c-49.691,90.443-68.997,195.981-78.339,297.716
	c-0.64,6.969-3.173,106.434-8.109,107.098c-0.816,0.11-30.536-76.31-34.537-84.338c-15.354-30.807-33.865-60.03-55.042-87.162
	c-42.358-54.267-95.428-100.234-155.488-133.929c-70.064-39.308-160.487-43.828-238.67-33.182
	c-75.157,10.234-153.486,65.411-205.119,118.273c-60.797,62.244-102.299,142.774-118.796,228.156
	c-12.439,64.378-6.292,139.892,8.355,203.636c26.004,113.176,95.271,212.434,196.975,269.856c3.837,2.166,7.708,4.271,11.613,6.313
	c85.041,44.48,186.624,5.417,180.211-4.315c-4.758-7.22-54.06,5.527-65.378,5.174c-80.519-2.511-162.285-55.87-212.795-115.994
	c-51.407-61.191-83.057-139.419-88.514-219.161c-8.193-119.726,19.212-244.374,98.637-337.187
	c64.985-75.939,160.071-123.195,260.229-126.384c124.571-3.967,239.518,65.187,313.369,163.127
	c28.122,37.294,45.302,77.977,64.525,119.896c19.124,41.699,45.997,81.643,54.01,127.525c5.847,33.487,5.388,67.492,7.126,101.385
	c5.125,99.899-31.639,211.917-75.086,300.415c-29.957,61.018-71.249,113.506-114.544,165.234
	c-99.239,118.57-224.593,191.889-358.956,262.947c-102.768,54.349-156.797,146.459-207.463,248.264
	c-4.875,9.795-9.674,19.629-14.417,29.489c-83.581,173.761-126.267,158.546-241.817,257.002
	c-84.681,72.155-96.187,111.612-114.481,198.462c-33.269,157.916-9.757,175.83-24.452,176.18c-5.018,0.12-9.427,0.72-11.276-6.128
	c-37.867-139.542-27.87-117-0.38-289.871c43.135-271.318-343.293-424.435-211.907-748.455
	c29.813-73.521,71.901-143.543,120.88-205.836c50.515-64.246,110.34-120.378,192.454-138.703
	c46.786-10.441,96.279-8.247,142.047,5.945c43.18,13.39,78.098,49.875,103.877,86.16c27.634,38.896,56.592,88.11,63.141,135.604
	c13.055,94.698,12.296,174.41-82.652,255.982c-29.49,25.341-64.998,38.197-101.525,49.633
	c-71.646,22.432-140.962,31.069-204.83-21.682c-65.617-54.201-36.937-104.105-46.054-105.854
	c-20.763-3.969-13.925,133.525,88.62,164.674c94.018,28.57,349.411-16.794,382.2-239.88
	c24.354-165.747-93.149-346.563-262.43-368.511c-47.471-6.155-96.356,0.035-141.058,17.029c-23.938,9.1-43.646,22.935-65.756,35.177
	c-9.116,5.048-17.716,10.982-26.887,15.952c-4.827,2.616-9.736,6.854-15.236,5.477c-5.701-1.427-9.878-8.886-11.147-14.08
	c-1.871-7.654-0.386-15.681,1.103-23.419c8.778-45.614,20.174-89.732,20.849-136.524c1.535-106.269-39.173-214.45-73.587-313.234
	c-31.674-90.921-36.289-191.062-13.268-284.54c10.468-42.506,35.009-76.141,57.921-113.278
	c23.271-37.72,49.394-74.211,83.755-102.68c58.396-48.373,157.573-87.827,231.44-54.449
	c137.301,62.042,132.453,261.609,34.352,353.798c-89.41,84.021-190.495,48.403-207.849,57.25c1.24,1.089,2.299,2.789,3.729,3.179
	c38.777,10.746,80.082,31.43,151.307,2.11c173.257-71.321,211.376-309.25,56.709-422.868c-10.513-7.723-21.007-13.859-33.363-18.142
	c-53.4-18.509-112.942-19.382-166.641-1.548c-56.706,18.832-106.164,58.279-137.797,108.897
	c-4.704,7.528-51.723,88.445-52.213,88.324c-4.359-1.08,12.656-81.132-27.811-152.219C832.646,24.37,669.668-46.035,551.38,34.847
	c-51.915,35.498-58.585,107.116-41.804,164.382c15.843,54.067,61.364,114.485,120.968,121.149
	c26.928,3.011,54.907-2.77,79.677-13.329c2.846-1.213,36.986-16.829,32.208-22.67c-6.928-8.467-32.189,15.894-85.932,11.856
	c-57.335-4.297-101.008-42.894-119.578-97.107c-20.732-60.526-6.505-135.806,60.489-156.597
	c117.61-36.508,187.066,20.273,219.965,40.037c114.761,88.81,77.753,218.475,51.232,326.628
	c-13.805,56.291-15.365,147.61,14.465,258.102c-0.966-3.578-15.915-12.709-18.968-15.406c-10.969-9.686-21.997-19.293-33.521-28.32
	c-33.17-25.981-69.972-47.429-110-60.922c-73.303-24.708-156.519-18.143-229.343,6.703
	c-70.462,24.04-130.868,67.951-181.114,122.448c-22.159,24.034-42.098,50.121-65.413,73.035
	c-14.805,14.55-31.103,27.84-49.346,37.858c-18.047,9.91-33.646,13.556-54.031,12.174c-36.629-2.484-70.956-23.53-87.48-56.681
	c-101.425-203.451,99.236-353,241.368-353.8c7.867-0.05,10.207-7.197,0.46-8.317C19.125,364.422-92.877,714.023,88.011,831.943
	c109.195,71.184,191.353-79.221,197.035-75.968c4.9,2.805-1.956,24.479-1.841,29.845c0.285,13.235,1.035,26.46,2.241,39.644
	c2.412,26.368,6.649,52.567,12.642,78.357c11.984,51.58,30.993,101.538,56.485,147.958c14.689,26.748,32.532,51.81,53.943,73.607
	c10.678,10.87,22.197,20.906,34.43,29.992c6.078,4.515,17.907,16.458,25.988,15.336c1.689-0.234-15.047-17.53-16.126-18.684
	c-6.966-7.441-13.713-15.086-20.22-22.932c-12.688-15.3-24.474-31.347-35.286-48.026c-12.508-19.294-23.713-39.433-33.503-60.239
	c-5.199-11.05-12.044-21.61-15.731-33.157c-4.545-14.234-8.579-28.646-12.278-43.121c-7.544-29.52-13.454-59.457-17.686-89.63
	c-7.133-50.852-6.671-99.461,26.078-141.18c28.795-36.683,66.23-66.053,107.602-87.337c29.501-15.178,61.057-26.338,93.468-33.38
	c46.287-10.057,95.482-12.307,142.532-3.504c49.252,9.215,90.911,31.12,130.357,61.284c4.109,3.142,8.154,6.369,12.126,9.682
	c54.737,45.666,86.992,106.565,111.204,172.523c61.559,167.743-9.117,371.673-28.7,406.431
	c-135.804,240.968-176.81,268.518-162.465,418.957c4.458,46.744,25.591,87.37,32.309,114.821
	c-34.178-20.643-184.027-158.496-368.104-162.974c-61.67-1.504-122.858,12.151-174.942,46.013
	c-48.825,31.743-86.421,77.58-117.757,126.055c-66.51,102.89-72.712,243.749-24.362,355.492
	c31.532,72.875,93.211,144.311,162.517,183.758c77.825,44.296,182.905,37.448,247.471-27.242
	c57.822-57.933,79.551-149.563,57.123-227.858c-7.064-24.659-18.475-48.042-33.406-68.89c-7.679-10.722-16.291-20.778-25.725-29.995
	c-10.729-10.484-18.389-12.338-32.378-16.779c2.819,4.948,4.838,10.626,8.577,14.735c189.035,207.519-35.478,438.26-224.603,309.224
	c-65.406-44.624-115.759-102.313-140.341-178.905c-24.341-75.84-32.886-154.921-7.377-231.949
	c35.534-107.301,131.633-201.243,245.771-216.254c34.884-4.588,70.361-3.859,105.308-0.378
	c132.485,13.216,250.145,118.17,274.416,135.894c160.665,117.33,167.633,184.157,213.497,252.763
	c76.844,114.971,23.682,205.71,12.746,253.284c-28.96,125.977,24.422,101.805-46.844,82.562
	c-11.556-3.119-76.034-27.85-125.157-58.61c-3.209-2.019-6.338-4.818-9.197-1.24c-0.95,1.189,0.93,6.488,2.919,7.867
	c21.593,14.965,16.364,47.404,29.8,62.379c20.503,22.862,23.072,56.93,47.774,75.684c10.156,7.717,11.886,18.774,18.844,26.571
	c12.716,14.265,62.709,76.644,33.868,83.611c-30.05,7.248-48.763,31.839-74.075,46.214c-71.226,40.466-27.001,57.92-140.682,117.37
	c-28.7,15.015-44.945,42.236-67.617,63.058c-31.679,29.08-0.15,83.562,15.185,127.766c13.965,40.276,45.205,9.787,57.88,38.527
	c9.647,21.853,43.265,34.708,63.828,22.142c26.761-16.354,57.16-22.542,84.561-36.177c10.876-5.408,50.563-23.242,51.482-11.166
	c1.38,18.064,10.846,34.148,12.236,51.422c2.409,30.07,1.5,60.429,1.43,90.659c-0.03,11.846,11.066,22.462,6.588,33.388
	c-12.856,31.329,6.728,47.084,2.119,74.635c-7.867,46.974,16.804,76.374,10.037,109.473c-7.577,37.097,9.027,70.586,7.098,106.664
	c-1.16,21.763,8.427,43.945,6.888,68.297c-2.679,42.236,23.072,80.772,23.762,123.628c0.1,6.138,7.188,10.816,7.587,18.204
	c5.018,94.578,98.756,101.465,66.837,142.721c-12.896,16.665-32.529,27.141-41.096,47.264
	c-16.424,38.597-50.403,61.849-82.472,83.531c-85.511,57.83-88.51,91.789-195.803,171.222c-21.873,16.184-42.296,29.17-47.444,58.55
	c-15.725,89.719,37.977,72.855,57.89,117.65c61.609,138.542,192.834,209.548,211.448,262.45
	c30.82,87.6,126.917,61.909,197.353,84.751c36.418,11.806,73.665,17.014,112.092,9.796c23.312-4.389,5.978-56.231-3.069-78.223
	c-19.463-47.284-43.495-60.949-94.048-52.462c-64.458,10.836-80.302,32.009-84.011,6.168c-8.027-55.991-54.432-3.719-73.275-24.412
	c-14.185-15.564-29.35-30.319-42.615-46.634c-25.691-31.6-41.046-70.296-68.097-101.026c-16.354-18.583-2.189-17.754-28.92-77.244
	c-10.816-24.072-33.958-35.928-46.544-57.45c-12.746-21.803,48.583-18.824,82.462-39.586c29.4-18.024,50.853,2.389,118.819-28.17
	c22.992-10.336,52.912-15.205,61.949-46.334c3.489-12.036,145.92-79.233,186.946-116.96c3.299-3.039,8.297-8.027,13.795-2.049
	c6.048,6.578,18.764,9.957,15.765,21.233c-8.737,32.809,8.567,63.888,4.898,96.237c-2.159,19.094,11.776,34.328,14.295,51.922
	c14.405,100.446,21.813,89.329,18.684,97.877c-12.746,34.778,3.009,69.316,0.51,104.074c-1.359,18.904,2.859,38.147,2.659,57.221
	c-0.33,30.319-12.196,59.77-1.769,91.239c5.538,16.714,17.234,30.68,20.263,47.104c14.545,78.953-3.469,54.481,4.499,102.595
	c20.463,123.508-4.079,111.642,14.895,226.173c4.528,27.341-8.507,9.707-40.946,67.637c-17.534,31.299-40.916,60.07-43.285,98.217
	c-0.28,4.608-1.909,6.917,4.298,8.007c61.489,10.807,160.515,6.708,168.133-49.093c8.627-63.199,2.469-42.625,6.358-60.759
	c7.437,3.179,16.554,16.974,19.293-4.869c6.428-51.422-24.052-56.511-29.32-98.636c-3.559-28.51-11.756-56.321-8.707-85.761
	c1.179-11.436-4.239-22.832-3.429-35.468c6.958-108.443-13.665-87.92,5.228-184.627c17.524-89.679-14.955-93.668-3.219-160.665
	c9.756-55.721,17.244-161.035,16.234-174.561c-1.749-23.382,7.567-46.274,12.886-69.266c7.407-32.009,11.496-64.828,19.723-96.607
	c7.347-28.37,28.69-51.522,30.17-82.951c0.94-19.803,23.022-28.301,31.879-44.595c12.676-23.322,56.791,8.697,136.143-8.957
	c81.982-18.234,47.134-4.378,183.107-17.294c34.758-3.299,70.186,3.339,104.274-7.377c15.945-5.018,17.744,7.077,21.323,17.184
	c39.286,111.162,121.099,210.018,154.297,264.19c78.473,128.066,155.497,138.243,137.873,215.536
	c-13.885,60.89-26.701,155.307-38.307,219.695c-5.258,29.16-7.108,1.069-28.24,122.298c-5.398,30.969-18.514,59.939-18.614,92.658
	c-0.19,66.757-38.947,44.834-84.401,193.444c-1.909,6.248-2.489,11.996,6.647,14.145c79.633,18.744,172.241-1.669,176.15-24.492
	c6.178-36.018,13.755-73.075-8.977-107.193c-12.336-18.503-4.348-26.551,14.755-23.372c45.374,7.557-20.593-44.515,16.654-171.622
	c21.833-74.515,30.709-152.698,62.289-224.313c17.494-39.687,22.972-83.991,49.243-120.449
	c37.087-51.473-29.2-90.009-40.296-139.292c-10.716-47.594-8.727-96.897-19.654-144.461c-0.41-1.809,0.76-3.999,1.19-6.008
	c2.769,1.23,6.867,1.689,8.097,3.809c16.554,28.48,50.093,33.089,73.385,52.232c10.656,8.747,21.762,19.013,36.587,21.493
	c27.541,4.598,38.777,46.474,119.919,90.939c121.118,66.387,84.611,62.149,108.413,107.653
	c50.583,96.757,36.188,135.773,58.67,195.593c30.81,81.982,40.206,178.969,58.33,214.946
	c39.137,77.673-15.185,80.183-32.509,224.653c-0.68,5.728-1.959,13.465,5.058,15.255c68.916,17.604,87.43-6.548,129.596-30.21
	c8.937-5.008,11.226-12.116,11.786-22.032c4.978-87.2-51.173-138.973-8.777-133.914c3.089,0.37,7.448-3.039,9.957-5.838
	c28.36-31.539-68.537-27.74-80.083-291.76c-2.299-52.622-20.303-93.918-23.132-258.912c-0.42-24.731-6.948-22.052-54.821-108.693
	c-6.508-11.776-10.677-25.132-19.413-35.728c-38.607-46.774-56.311-101.315-49.923-160.585
	c9.127-84.701-24.492-208.459,42.855-279.754c45.874-48.553,8.177-82.112-3.689-113.531
	c-44.415-117.63-122.148-140.852-192.574-193.564c-16.244-12.156-38.927-14.115-52.362-30.989
	c-88.23-110.732-330.937-52.892-411.799-58.92c-27.111-2.029-152.018-3.449-168.183-0.86
	c-103.115,16.514-113.391-19.013-281.414-36.827c-22.212-2.349-45.305-1.41-66.487-7.338
	c-178.119-49.863-210.538-2.989-314.303-115.46c-69.486-75.314-44.425-86.33-59.04-107.773
	c-58.49-85.891-15.705-219.365-17.744-231.281c-7.917-46.454,54.891-74.055,86.94-118.199
	c73.955-101.875-2.709-174.99,22.392-244.267c2.989-8.267,0.98-33.658-8.107-23.252c-17.734,20.303-28.74,46.244-50.183,63.218
	c-25.581,20.253-39.397,49.923-61.659,73.125c-25.301,26.381-54.911,52.912-53.582,95.497c0.23,7.438-3.669,2.939-6.778,1.479
	c-22.712-10.677-16.025-29.81-16.215-48.693c-0.69-64.798,14.085-126.097,37.717-185.707
	c41.256-104.074,62.868-102.835,200.162-211.218c119.719-94.508,108.883-154.767,175.39-281.584
	c100.496-191.645,256.552-206.859,323.549-123.998c61.399,75.934,95.167,161.895,169.872,226.253
	c200.312,172.561,294.729,188.616,378.891,357.568c167.563,336.365-118.33,678.618-403.372,636.223
	c-93.998-13.975-232.141-83.901-268.978-200.651c-18.204-57.72-15.405-106.074-15.015-128.296c0.3-0.45,0.48-0.87,0.48-1.11
	c0.52-84.921,53.102-203.76,123.278-258.781c108.878-85.377,168.327-68.748,166.253-79.261c-2.45-12.422-72.529,4.518-78.57,6.255
	c-61.925,17.809-115.281,57.697-154.766,108.073c-49.198,62.767-80.589,139.626-87.117,219.259
	c-5.483,66.889,1.762,126.627,34.839,185.387c30.878,54.854,75.789,101.906,129.75,134.434
	c117.684,70.938,280.355,68.805,400.133,4.227c130.146-70.168,223.326-224.464,241.26-369.469
	c5.312-42.955,4.842-86.637-1.62-129.44c-8.738-57.885-28.414-114.055-57.375-164.913c-14.607-25.65-32.527-48.076-49.877-71.773
	c-3.588-4.9-42.426-43.782-40.322-47.507c4.789-8.457,89.649,76.804,377.432,11.156c91.542-20.903,187.506-31.238,280.846-16.675
	c70.481,10.996,131.469,38.616,191.527,76.04c168.08,104.734,248.786,287.71,244.264,481.407c-0.028,1.054-0.055,2.108-0.083,3.163
	c-4.956,189.761-162.557,367.455-344.832,410.453c-3.873,0.914-7.76,1.769-11.659,2.564c-68.808,14.038-142.201,9.81-208.693-13.047
	c-53.768-18.483-92.69-89.071-108.531-140.305c-27.283-88.235-20.038-189.605,33.994-266.292
	c38.027-53.971,80.263-60.03,163.734-71.106c10.106-1.339,11.166-8.707,1.08-10.487c-10.067-1.769-20.433-1.959-30.4-4.089
	c-64.118-13.645-125.317,27.161-156.649,71.859c-52.517,74.915-68.246,155.248-55.349,244.956
	c4.661,32.419,12.535,64.616,25.687,94.69c22.571,51.613,61.543,93.335,113.938,115.099
	c68.054,28.269,153.396,24.658,224.705,10.733c74.891-14.624,146.528-46.458,206.855-93.288
	c99.011-76.859,161.784-192.955,181.071-316.171c30.622-195.637-54.721-393.169-205.781-517.747
	c-69.438-57.265-153.158-99.136-242.852-111.578c-6.925-0.96-13.877-1.718-20.848-2.252c-12.386-0.95-18.604-1.81-21.613-1.52
	c-32.269-3.329-138.363,7.497-103.365-2.249c46.704-13.006,87.28-81.032,110.152-124.028
	c79.453-149.369,62.458-208.279,90.289-369.844c16.704-97.017,75.244-198.872,115.541-220.325
	c82.012-43.645,220.185-3.729,264.1,107.873C3530.705,1627.201,3445.774,1766.144,3344.689,1799.132z M689.626,2859.71
	c-9.847-3.199-24.262-3.699-19.813-22.512c2.219-9.357-11.236-3.289-14.195,2.479c-1.47,2.839,6.478,6.538-0.49,8.187
	c-2.339,0.56-14.485-5.868-3.069-15.994C683.228,2804.209,741.838,2856.021,689.626,2859.71z M1029.1,2666.266
	c-1.889,9.817-24.651-10.346-23.162,12.136c1.479,22.343-13.955,37.768-35.348,37.768c-21.693,4.988-20.083-35.068-42.586-12.576
	c-2.849,2.839-6.318,7.478-9.817,3.409c-3.429-3.999,3.269-4.878,5.048-7.447c8.617-12.456,54.171-17.354,78.583-36.858
	c3.809-3.049,10.846-6.178,16.375-3.019C1021.942,2661.828,1030.469,2659.169,1029.1,2666.266z"/>
</svg>
