<?xml version="1.0" encoding="utf-8"?>
<svg version="1.1" id="Layer_1" xmlns="http://www.w3.org/2000/svg" xmlns:xlink="http://www.w3.org/1999/xlink" x="0px" y="0px"
	 viewBox="0 0 5000 2761.922" enable-background="new 0 0 5000 2761.922" xml:space="preserve">
<g>
	<path d="M4981.347,2063.751c-256.378-43.409-470.139-25.92-627.125,72.693c-33.746,21.198-78.504,9.052-95.875-26.815
		C3957.543,1488.49,3467.516,982.809,2811.61,578.342l45.677-65.401c10.995-15.742,32.315-20.261,48.75-10.331l23.852,14.41
		c9.825,5.937,22.611,2.365,28.005-7.769c86.525-162.525,175.272-314.904,267.255-452.492c17.899-26.773-5.148-61.972-36.816-56.112
		c-268.859,49.752-524.775,117.343-764.32,207.497c-15.561,5.856-17.71,26.974-3.596,35.762l14.085,8.77
		c16.826,10.477,22.201,32.476,12.102,49.531l-48.532,81.965C1753.823-20.43,1141.41,24.073,561.733,530.437
		c-36.072,31.51-81.359,50.321-129.086,54.348c-102.792,8.674-201.211,34.068-289.029,86.937
		c-218.921,131.795-183.903,288.264,80.039,354.25c332.017,83.004,718.875-194.17,1253.956-56.324
		c113.84,36.717,193.049,113.389,216.403,238.637c39.029,209.313,110.425,398.514,275.693,532.116
		c74.416,60.158,153.051,67.049,179.349-4.447c47.431-128.953-2.856-330.755-57.651-502.492
		c-13.624-42.699,21.208-85.212,65.756-80.276c982.565,108.866,1796.661,548.037,2050.695,1162.314
		c60.066,145.246,88.769,294.458,158.477,432.441c10.566,20.915,41.481,17.631,47.671-4.97
		c39.128-142.887,58.441-276.414,45.829-394.863c183.146-42.933,357.642-129.46,527.03-241.721
		C5006.948,2097.178,5003.13,2067.439,4981.347,2063.751z M877.317,776.959c-32.745,0-59.289-26.544-59.289-59.289
		c0-32.744,26.545-59.289,59.289-59.289c32.743,0,59.288,26.545,59.288,59.289C936.605,750.415,910.06,776.959,877.317,776.959z"/>
	<path d="M1354.59,1006.703c-253.073-22.115-525.061,5.902-810.269,55.384c-14.515,2.518-15.949,22.869-1.92,27.368
		c317.674,101.892,657.203,159.95,1006.36,185.529c42.547,3.117,57.623-24.636,44.466-65.218
		C1548.581,1072.054,1465.964,1016.436,1354.59,1006.703z"/>
	<path d="M2245.576,1317.804c-1.385,45.726,29.855,86.945,74.768,95.642c632.077,122.408,1178.383,308.148,1568.097,562.626
		c-452.343-426.974-994.723-677.858-1640.815-725.916L2245.576,1317.804z"/>
</g>
</svg>
